<svg width="193" height="31" viewBox="0 0 193 31" fill="none" xmlns="http://www.w3.org/2000/svg">
<path d="M37.28 21V7H38.5L48.16 19.16H47.52V7H48.98V21H47.76L38.12 8.84H38.76V21H37.28ZM57.5295 21.1C56.5162 21.1 55.6029 20.8733 54.7895 20.42C53.9895 19.9533 53.3562 19.32 52.8895 18.52C52.4229 17.7067 52.1895 16.78 52.1895 15.74C52.1895 14.6867 52.4229 13.76 52.8895 12.96C53.3562 12.16 53.9895 11.5333 54.7895 11.08C55.5895 10.6267 56.5029 10.4 57.5295 10.4C58.5695 10.4 59.4895 10.6267 60.2895 11.08C61.1029 11.5333 61.7362 12.16 62.1895 12.96C62.6562 13.76 62.8895 14.6867 62.8895 15.74C62.8895 16.78 62.6562 17.7067 62.1895 18.52C61.7362 19.32 61.1029 19.9533 60.2895 20.42C59.4762 20.8733 58.5562 21.1 57.5295 21.1ZM57.5295 19.84C58.2895 19.84 58.9629 19.6733 59.5495 19.34C60.1362 18.9933 60.5962 18.5133 60.9295 17.9C61.2762 17.2733 61.4495 16.5533 61.4495 15.74C61.4495 14.9133 61.2762 14.1933 60.9295 13.58C60.5962 12.9667 60.1362 12.4933 59.5495 12.16C58.9629 11.8133 58.2962 11.64 57.5495 11.64C56.8029 11.64 56.1362 11.8133 55.5495 12.16C54.9629 12.4933 54.4962 12.9667 54.1495 13.58C53.8029 14.1933 53.6295 14.9133 53.6295 15.74C53.6295 16.5533 53.8029 17.2733 54.1495 17.9C54.4962 18.5133 54.9629 18.9933 55.5495 19.34C56.1362 19.6733 56.7962 19.84 57.5295 19.84ZM68.1956 21L63.5356 10.5H65.0156L69.2956 20.24H68.5956L72.9356 10.5H74.3356L69.6556 21H68.1956ZM82.603 21V18.68L82.543 18.3V14.42C82.543 13.5267 82.2896 12.84 81.783 12.36C81.2896 11.88 80.5496 11.64 79.563 11.64C78.883 11.64 78.2363 11.7533 77.623 11.98C77.0096 12.2067 76.4896 12.5067 76.063 12.88L75.423 11.82C75.9563 11.3667 76.5963 11.02 77.343 10.78C78.0896 10.5267 78.8763 10.4 79.703 10.4C81.063 10.4 82.1096 10.74 82.843 11.42C83.5896 12.0867 83.963 13.1067 83.963 14.48V21H82.603ZM78.983 21.1C78.1963 21.1 77.5096 20.9733 76.923 20.72C76.3496 20.4533 75.9096 20.0933 75.603 19.64C75.2963 19.1733 75.143 18.64 75.143 18.04C75.143 17.4933 75.2696 17 75.523 16.56C75.7896 16.1067 76.2163 15.7467 76.803 15.48C77.403 15.2 78.203 15.06 79.203 15.06H82.823V16.12H79.243C78.2296 16.12 77.523 16.3 77.123 16.66C76.7363 17.02 76.543 17.4667 76.543 18C76.543 18.6 76.7763 19.08 77.243 19.44C77.7096 19.8 78.363 19.98 79.203 19.98C80.003 19.98 80.6896 19.8 81.263 19.44C81.8496 19.0667 82.2763 18.5333 82.543 17.84L82.863 18.82C82.5963 19.5133 82.1296 20.0667 81.463 20.48C80.8096 20.8933 79.983 21.1 78.983 21.1ZM94.6742 13.26H102.074V14.52H94.6742V13.26ZM94.8342 19.72H103.254V21H93.3542V7H102.954V8.28H94.8342V19.72ZM96.8742 5.86L99.6142 3.38H101.514L98.2742 5.86H96.8742ZM109.46 21.1C108.473 21.1 107.713 20.8333 107.18 20.3C106.647 19.7667 106.38 19.0133 106.38 18.04V8.18H107.8V17.96C107.8 18.5733 107.953 19.0467 108.26 19.38C108.58 19.7133 109.033 19.88 109.62 19.88C110.247 19.88 110.767 19.7 111.18 19.34L111.68 20.36C111.4 20.6133 111.06 20.8 110.66 20.92C110.273 21.04 109.873 21.1 109.46 21.1ZM104.5 11.68V10.5H111V11.68H104.5ZM119.625 10.4C120.478 10.4 121.225 10.5667 121.865 10.9C122.518 11.22 123.025 11.7133 123.385 12.38C123.758 13.0467 123.945 13.8867 123.945 14.9V21H122.525V15.04C122.525 13.9333 122.245 13.1 121.685 12.54C121.138 11.9667 120.365 11.68 119.365 11.68C118.618 11.68 117.965 11.8333 117.405 12.14C116.858 12.4333 116.432 12.8667 116.125 13.44C115.832 14 115.685 14.68 115.685 15.48V21H114.265V6.16H115.685V13.38L115.405 12.84C115.738 12.08 116.272 11.4867 117.005 11.06C117.738 10.62 118.612 10.4 119.625 10.4ZM127.781 21V10.5H129.201V21H127.781ZM128.501 8.18C128.207 8.18 127.961 8.08 127.761 7.88C127.561 7.68 127.461 7.44 127.461 7.16C127.461 6.88 127.561 6.64667 127.761 6.46C127.961 6.26 128.207 6.16 128.501 6.16C128.794 6.16 129.041 6.25333 129.241 6.44C129.441 6.62667 129.541 6.86 129.541 7.14C129.541 7.43333 129.441 7.68 129.241 7.88C129.054 8.08 128.807 8.18 128.501 8.18ZM137.512 21.1C136.472 21.1 135.539 20.8733 134.712 20.42C133.899 19.9533 133.259 19.32 132.792 18.52C132.325 17.7067 132.092 16.78 132.092 15.74C132.092 14.6867 132.325 13.76 132.792 12.96C133.259 12.16 133.899 11.5333 134.712 11.08C135.539 10.6267 136.472 10.4 137.512 10.4C138.405 10.4 139.212 10.5733 139.932 10.92C140.652 11.2667 141.219 11.7867 141.632 12.48L140.572 13.2C140.212 12.6667 139.765 12.2733 139.232 12.02C138.699 11.7667 138.119 11.64 137.492 11.64C136.745 11.64 136.072 11.8133 135.472 12.16C134.872 12.4933 134.399 12.9667 134.052 13.58C133.705 14.1933 133.532 14.9133 133.532 15.74C133.532 16.5667 133.705 17.2867 134.052 17.9C134.399 18.5133 134.872 18.9933 135.472 19.34C136.072 19.6733 136.745 19.84 137.492 19.84C138.119 19.84 138.699 19.7133 139.232 19.46C139.765 19.2067 140.212 18.82 140.572 18.3L141.632 19.02C141.219 19.7 140.652 20.22 139.932 20.58C139.212 20.9267 138.405 21.1 137.512 21.1ZM151.001 21V18.68L150.941 18.3V14.42C150.941 13.5267 150.688 12.84 150.181 12.36C149.688 11.88 148.948 11.64 147.961 11.64C147.281 11.64 146.635 11.7533 146.021 11.98C145.408 12.2067 144.888 12.5067 144.461 12.88L143.821 11.82C144.355 11.3667 144.995 11.02 145.741 10.78C146.488 10.5267 147.275 10.4 148.101 10.4C149.461 10.4 150.508 10.74 151.241 11.42C151.988 12.0867 152.361 13.1067 152.361 14.48V21H151.001ZM147.381 21.1C146.595 21.1 145.908 20.9733 145.321 20.72C144.748 20.4533 144.308 20.0933 144.001 19.64C143.695 19.1733 143.541 18.64 143.541 18.04C143.541 17.4933 143.668 17 143.921 16.56C144.188 16.1067 144.615 15.7467 145.201 15.48C145.801 15.2 146.601 15.06 147.601 15.06H151.221V16.12H147.641C146.628 16.12 145.921 16.3 145.521 16.66C145.135 17.02 144.941 17.4667 144.941 18C144.941 18.6 145.175 19.08 145.641 19.44C146.108 19.8 146.761 19.98 147.601 19.98C148.401 19.98 149.088 19.8 149.661 19.44C150.248 19.0667 150.675 18.5333 150.941 17.84L151.261 18.82C150.995 19.5133 150.528 20.0667 149.861 20.48C149.208 20.8933 148.381 21.1 147.381 21.1Z" fill="white"/>
<rect width="27" height="27" fill="#9CCBA1"/>
<path d="M15.2955 2.45455V17H13.5909L5.66477 5.57955H5.52273V17H3.76136V2.45455H5.46591L13.4205 13.9034H13.5625V2.45455H15.2955Z" fill="black"/>
<path d="M13.7614 23V8.45455H22.5398V10.017H15.5227V14.9318H22.0852V16.4943H15.5227V21.4375H22.6534V23H13.7614ZM17.3693 6.97727L19.1023 3.68182H21.0625L18.8466 6.97727H17.3693Z" fill="white"/>
</svg>
